# xmcd CD database file generated by Grip 3.2.0
# 
# Track frame offsets:
#       150
#       20960
#       43165
#       62275
#       80300
#       98180
#       121112
#       141475
#       162667
#       186057
# 
# Disc length: 2769 seconds
# 
# Revision: 1
# Processed by: cddbd v1.5.1PL2 Copyright (c) Steve Scherf et al.
# Submitted via: Grip 3.2.0
# 
DISCID=870acf0a
DTITLE=Dimanche - Dimanche
DYEAR=1991
DGENRE=JPop
TTITLE0=哀しいオール
TTITLE1=Winter Roses
TTITLE2=Touch My Soul
TTITLE3=Feel My Eyes
TTITLE4=Chinese Boy
TTITLE5=夏の永遠〜Somewhere in My Heart〜
TTITLE6=Mother
TTITLE7=青春の光と影(Both Sides Now)
TTITLE8=The Garden
TTITLE9=River
EXTD=YEAR: 1991
EXTT0=
EXTT1=
EXTT2=
EXTT3=
EXTT4=
EXTT5=
EXTT6=
EXTT7=
EXTT8=
EXTT9=
PLAYORDER=
